<svg width="100" height="100" viewBox="0 0 100 100" fill="none" xmlns="http://www.w3.org/2000/svg">
<path d="M71.6953 95.0469C65.133 98.2123 57.7738 99.9872 50 99.9873C44.9493 99.9873 40.0735 99.2365 35.4775 97.8438L36.0332 96.0449C40.4533 97.3839 45.1419 98.1073 49.999 98.1074C57.511 98.1073 64.6194 96.382 70.9541 93.3115L71.6953 95.0469ZM70.0791 91.2627C64.0137 94.2193 57.2005 95.8808 49.999 95.8809C45.3706 95.8808 40.9026 95.1924 36.6904 93.917L37.2646 92.0586C41.2958 93.2772 45.5712 93.9355 50 93.9355C56.9303 93.9355 63.4845 92.328 69.3145 89.4707L70.0791 91.2627ZM77.5791 91.6953C77.1879 91.9545 76.7924 92.2076 76.3936 92.4561L73.9844 86.8154C74.0119 86.7975 74.0389 86.7788 74.0664 86.7607L77.5791 91.6953ZM99.9688 48.2422C99.9886 48.8214 100 49.4033 100 49.9873C99.9999 65.4899 92.9431 79.3435 81.8682 88.5146L80.7725 86.9756C91.2985 78.2091 98.0263 65.0382 98.1172 50.29H95.8906C95.8001 64.29 89.4393 76.7991 79.4775 85.1572L78.3467 83.5684C87.8871 75.5067 93.9482 63.4557 93.9482 49.9873C93.9482 49.4229 93.9332 48.861 93.9121 48.3018L99.9688 48.2422ZM99.6025 43.6621C99.6955 44.3984 99.7715 45.1398 99.832 45.8857L93.7598 45.9443C93.7074 45.3705 93.6465 44.7997 93.5723 44.2324L99.6025 43.6621ZM98.4727 37.6816C98.7299 38.6982 98.9555 39.7273 99.1494 40.7676L93.0947 41.3408C92.914 40.4349 92.7053 39.5392 92.4697 38.6543L98.4727 37.6816Z" fill="#D234FF"/>
<path d="M29.9834 89.1228C30.0701 89.1672 30.1581 89.2088 30.2451 89.2527L28.4365 95.1091C27.5797 94.6989 26.7371 94.2641 25.9082 93.8074L29.9834 89.1228ZM10.3818 69.0339C13.4348 75.3727 17.9657 80.8646 23.5254 85.0671L19.5459 89.6414C13.4537 84.9556 8.47152 78.8993 5.0625 71.9314L10.3818 69.0339ZM8.35938 64.0759C8.50268 64.4996 8.6538 64.9198 8.80957 65.3376L3.44434 68.2605C3.12623 67.4507 2.82916 66.6303 2.55273 65.8005L8.35938 64.0759ZM31.0859 10.3074C16.2811 17.377 6.05185 32.487 6.05176 49.9871C6.05176 53.3712 6.43408 56.6662 7.1582 59.8308L1.3457 61.5564C0.466042 57.843 3.86555e-06 53.9694 0 49.9871C9.20354e-05 29.8937 11.8541 12.5713 28.9492 4.62476L31.0859 10.3074ZM54.7178 0.207764C74.8604 2.09291 91.5317 15.9258 97.5713 34.5486L91.5107 35.53C86.0279 19.7859 71.8452 8.11984 54.7178 6.29175V0.207764ZM48.8594 6.05347C44.569 6.16277 40.4321 6.88909 36.5322 8.14331L34.3984 2.46948C38.9641 0.971336 43.8197 0.113542 48.8594 0.000732422V6.05347Z" fill="#14E7E4"/>
</svg>
